<?xml version="1.0" standalone="no"?>
<!DOCTYPE svg PUBLIC "-//W3C//DTD SVG 20010904//EN"
 "http://www.w3.org/TR/2001/REC-SVG-20010904/DTD/svg10.dtd">
<svg version="1.0" xmlns="http://www.w3.org/2000/svg"
 width="2560.000000pt" height="2560.000000pt" viewBox="0 0 2560.000000 2560.000000"
 preserveAspectRatio="xMidYMid meet">
<metadata>
Created by potrace 1.14, written by Peter Selinger 2001-2017
</metadata>
<g transform="translate(0.000000,2560.000000) scale(0.100000,-0.100000)"
fill="#000000" stroke="none">
<path d="M10483 24565 l-35 -35 7 -93 c3 -50 8 -103 9 -117 2 -14 7 -56 10
-95 4 -38 9 -83 11 -100 3 -16 7 -59 10 -95 9 -102 15 -172 20 -205 2 -16 7
-66 10 -110 4 -44 9 -87 10 -96 2 -8 6 -53 10 -100 l7 -85 -124 -29 c-67 -16
-130 -30 -138 -31 -8 -2 -85 -22 -170 -44 -85 -22 -163 -43 -172 -45 -10 -2
-109 -31 -220 -64 -367 -109 -723 -235 -1076 -382 -215 -90 -241 -101 -387
-167 -150 -68 -619 -309 -775 -397 -85 -48 -171 -97 -190 -108 -19 -10 -54
-32 -78 -48 -24 -16 -45 -29 -47 -29 -9 0 -289 -179 -435 -278 -162 -110 -359
-251 -470 -336 -115 -88 -285 -221 -290 -226 -3 -4 -43 -37 -90 -76 -47 -38
-90 -73 -96 -79 -6 -5 -37 -32 -69 -60 -250 -212 -667 -615 -895 -864 -52 -58
-116 -127 -142 -155 l-46 -51 -804 -1 c-441 -1 -812 -4 -823 -7 -11 -3 -34
-10 -52 -16 -17 -5 -34 -7 -37 -3 -3 3 -6 0 -6 -6 0 -7 -3 -11 -7 -10 -13 3
-117 -50 -148 -77 -73 -62 -93 -83 -124 -128 -38 -56 -86 -157 -97 -207 -5
-19 -10 -724 -11 -1567 l-3 -1532 -51 -143 c-140 -395 -238 -729 -334 -1138
-21 -85 -39 -164 -41 -175 -2 -11 -15 -78 -29 -150 -14 -71 -27 -141 -30 -155
-3 -14 -12 -65 -20 -115 -8 -49 -17 -101 -19 -115 -4 -22 -20 -124 -31 -200
-3 -14 -7 -45 -10 -70 -3 -25 -7 -61 -10 -80 -12 -100 -18 -151 -29 -260 -4
-36 -9 -83 -11 -105 -2 -22 -7 -74 -10 -115 -3 -41 -8 -97 -10 -125 -15 -180
-19 -362 -20 -745 0 -432 7 -638 30 -895 2 -33 7 -89 10 -125 3 -36 7 -81 10
-100 2 -19 7 -62 10 -95 3 -33 10 -94 15 -135 5 -41 12 -97 15 -125 6 -51 12
-91 20 -135 2 -14 7 -45 10 -70 9 -67 63 -382 80 -464 8 -39 16 -82 19 -96 7
-35 21 -103 41 -190 9 -41 18 -82 20 -90 18 -85 114 -460 131 -512 4 -15 -8
-16 -123 -14 -206 3 -372 -20 -521 -72 -448 -157 -664 -566 -543 -1032 30
-119 129 -349 152 -358 5 -2 9 -10 9 -17 0 -16 82 -141 161 -245 l57 -76 -65
-84 c-311 -405 -419 -816 -300 -1143 71 -196 212 -350 412 -450 63 -31 144
-63 185 -72 187 -42 244 -49 430 -49 145 1 244 8 349 25 48 8 58 6 68 -8 7 -9
13 -22 13 -29 0 -20 98 -243 147 -334 72 -134 160 -256 253 -350 191 -193 369
-270 616 -264 93 2 126 7 205 34 123 41 228 105 326 199 107 104 143 147 212
257 l59 94 49 -57 c40 -48 84 -98 138 -159 163 -183 561 -588 721 -734 39 -36
93 -85 120 -110 52 -48 243 -214 283 -246 13 -10 40 -33 60 -50 413 -356 1137
-846 1696 -1149 39 -21 93 -50 120 -65 205 -113 734 -358 980 -454 66 -26 129
-51 140 -56 109 -51 596 -217 845 -288 19 -6 67 -20 105 -32 39 -12 77 -23 85
-25 8 -2 78 -19 155 -39 77 -20 151 -39 165 -42 14 -3 34 -8 45 -11 11 -4 25
-8 30 -9 6 -1 64 -13 130 -27 66 -14 131 -28 145 -31 14 -2 68 -13 120 -25 52
-11 140 -27 195 -36 55 -9 111 -18 125 -20 14 -2 66 -11 115 -19 50 -8 108
-18 130 -20 22 -3 76 -10 120 -15 44 -6 111 -13 149 -16 39 -3 88 -8 110 -10
23 -2 82 -7 131 -11 50 -3 110 -7 135 -9 347 -26 998 -25 1340 0 30 2 102 7
160 10 58 4 107 8 110 10 3 1 45 6 93 10 48 3 97 8 108 10 10 2 52 7 92 10 39
3 83 8 97 10 41 5 113 16 143 21 26 4 33 -6 29 -46 0 -3 4 -39 9 -80 5 -41 11
-98 13 -126 5 -69 27 -99 89 -123 151 -56 1922 -641 1942 -641 13 0 59 13 102
29 43 16 170 64 283 107 113 42 223 83 244 91 38 14 103 38 556 208 113 43
288 108 389 146 101 38 190 74 198 81 27 22 41 63 48 138 3 41 8 86 10 100 2
14 6 59 10 100 4 41 8 86 10 100 2 14 6 57 9 95 4 39 8 86 11 105 2 19 7 62
10 95 3 33 7 78 10 100 2 22 7 65 9 95 5 50 19 194 31 310 3 25 9 92 15 150
22 232 15 212 98 255 414 215 1166 732 1606 1105 49 41 103 86 120 99 51 41
181 156 355 316 166 153 544 538 661 674 30 35 62 71 70 80 45 47 270 316 352
421 151 194 407 556 520 735 250 398 271 448 233 543 -41 102 -177 116 -272
29 -22 -19 -33 -12 -14 8 33 35 284 572 390 835 35 85 67 164 72 175 22 51
168 458 174 489 3 11 18 60 34 110 28 87 90 297 106 361 5 17 9 35 11 40 70
272 125 518 159 709 14 78 27 152 30 166 3 14 7 43 10 65 3 22 7 51 10 65 11
56 15 88 20 136 3 28 7 59 9 70 2 11 7 47 11 79 4 33 8 71 10 85 2 14 7 57 10
95 3 39 8 81 10 95 2 14 7 70 11 125 3 55 8 116 10 135 8 80 18 390 18 595 1
205 -1 223 -21 267 -27 60 -49 83 -96 103 -44 18 -88 12 -131 -18 -81 -56
-101 -122 -111 -362 -17 -403 -37 -663 -60 -784 -3 -15 -20 -132 -31 -211 -2
-19 -6 -42 -9 -50 -2 -8 -6 -40 -10 -71 -3 -31 -8 -67 -10 -80 -3 -13 -8 -44
-11 -69 -3 -25 -7 -52 -9 -60 -2 -8 -7 -40 -10 -70 -4 -30 -18 -100 -31 -154
-14 -55 -29 -118 -34 -140 -11 -52 -15 -71 -30 -126 -7 -25 -13 -52 -15 -60
-4 -20 -41 -173 -66 -275 -61 -247 -65 -261 -232 -735 -155 -440 -404 -1002
-603 -1360 -19 -36 -54 -99 -77 -140 -67 -124 -281 -475 -382 -630 -237 -360
-511 -720 -822 -1080 -12 -14 -30 -35 -41 -47 -88 -103 -232 -253 -427 -448
-265 -265 -407 -397 -579 -540 -27 -22 -60 -50 -75 -63 -151 -133 -710 -553
-799 -601 -23 -12 -23 -11 -21 33 2 25 5 46 8 46 3 0 6 21 7 48 0 52 13 209
19 232 2 8 7 51 10 95 4 44 8 94 10 110 2 17 6 59 10 95 3 36 8 81 10 100 10
94 15 140 20 200 4 36 10 103 15 150 5 47 12 114 15 150 3 36 7 79 10 95 2 17
5 51 6 78 1 26 5 47 8 47 3 0 6 21 7 48 2 84 7 152 13 152 3 0 6 21 7 48 0 43
4 93 22 272 9 88 5 111 -24 146 l-26 29 -2290 0 -2290 0 -29 -32 c-28 -32 -28
-34 -24 -126 3 -52 8 -105 10 -118 3 -13 8 -58 11 -99 3 -41 7 -86 10 -100 2
-14 7 -56 9 -95 3 -38 8 -84 10 -101 2 -16 7 -59 11 -95 3 -35 8 -80 10 -99 3
-19 5 -42 5 -50 1 -8 5 -55 11 -105 6 -49 10 -97 10 -105 0 -8 4 -51 9 -95 5
-44 12 -111 15 -150 2 -38 7 -86 10 -105 2 -19 7 -65 10 -101 2 -37 7 -77 10
-90 2 -13 7 -60 10 -104 3 -44 7 -91 9 -105 3 -14 7 -56 10 -95 3 -38 8 -85
10 -103 3 -19 8 -66 11 -105 3 -40 7 -83 9 -96 2 -14 7 -54 11 -90 3 -36 8
-82 10 -101 2 -19 6 -69 9 -110 3 -41 8 -86 10 -100 3 -14 7 -56 10 -95 3 -38
8 -83 10 -100 2 -16 7 -61 10 -100 3 -38 8 -86 11 -105 3 -19 7 -66 10 -105 3
-38 7 -77 9 -85 2 -8 7 -55 11 -105 3 -49 8 -99 10 -110 3 -11 7 -54 10 -95 3
-41 7 -81 9 -88 2 -6 1 -12 -3 -13 -12 -2 -74 -7 -166 -14 -48 -3 -96 -8 -106
-10 -134 -26 -948 -26 -1220 0 -25 2 -79 7 -120 10 -185 15 -244 21 -390 40
-19 2 -57 7 -85 10 -69 8 -100 12 -175 24 -36 5 -83 12 -105 16 -60 8 -277 44
-305 50 -14 3 -41 8 -60 11 -19 4 -44 8 -55 11 -11 2 -54 10 -95 18 -41 8
-120 26 -175 40 -55 15 -109 28 -120 31 -11 2 -128 31 -260 63 -198 50 -322
87 -475 144 -8 3 -53 19 -100 36 -535 189 -591 211 -903 360 -82 39 -150 71
-152 71 -1 0 -51 23 -111 52 -60 28 -111 52 -114 53 -32 10 -209 104 -312 166
-72 43 -132 79 -133 79 -1 0 -42 25 -91 54 -49 30 -128 78 -176 106 -163 96
-681 446 -789 534 -14 12 -40 32 -59 46 -97 73 -232 180 -285 225 -33 29 -103
87 -155 130 -52 43 -109 92 -126 109 -17 17 -73 69 -125 116 -234 212 -573
568 -804 845 -27 33 -53 62 -56 65 -3 3 -36 42 -73 87 -44 54 -63 84 -54 87 7
2 36 9 63 16 171 38 363 148 460 262 28 32 55 64 61 71 54 61 120 230 138 350
8 50 8 213 1 252 -20 106 -30 149 -55 220 -66 191 -187 402 -340 590 -5 6 14
39 46 80 65 84 169 246 214 335 36 72 97 224 103 261 3 13 9 42 15 64 49 189
22 428 -67 603 -102 200 -322 360 -586 426 -180 45 -497 51 -734 15 -35 -5
-67 -6 -71 -2 -4 4 -24 51 -45 103 -101 259 -235 480 -377 621 -100 99 -148
135 -246 184 -126 62 -192 77 -342 77 -117 0 -146 -3 -212 -25 -89 -28 -81
-34 -98 78 -5 39 -12 81 -14 95 -3 14 -7 41 -10 60 -3 19 -8 46 -11 60 -3 14
-7 45 -10 70 -3 25 -8 56 -10 70 -2 14 -7 50 -10 80 -7 69 -16 139 -21 165 -2
11 -6 56 -9 100 -3 44 -8 103 -10 130 -4 47 -12 150 -20 255 -2 25 -7 90 -12
145 -16 194 -1 1086 22 1285 3 25 7 70 10 100 4 46 23 190 40 315 2 17 9 71
15 120 6 50 13 101 15 115 2 14 6 48 9 75 15 122 24 189 31 225 3 14 7 34 9
45 9 44 67 298 95 415 24 104 39 167 67 295 19 88 40 168 65 250 45 144 99
307 107 320 5 7 174 11 558 10 518 0 553 1 585 19 38 20 79 75 79 105 0 11 6
23 13 28 6 4 81 8 165 8 l154 0 -6 -40 c-4 -22 -9 -53 -11 -70 -2 -16 -7 -41
-9 -55 -3 -14 -8 -36 -11 -50 -3 -14 -7 -41 -10 -60 -2 -19 -7 -46 -9 -60 -10
-45 -15 -74 -20 -110 -3 -19 -12 -66 -19 -105 -15 -77 -13 -145 4 -155 6 -4
10 -11 9 -15 -4 -12 51 -66 60 -60 5 3 10 0 12 -5 5 -16 158 -16 158 0 0 3 10
6 23 6 28 2 82 11 82 14 0 1 18 3 40 5 22 1 40 4 40 5 0 3 90 20 135 25 14 2
25 4 25 5 0 1 14 3 30 5 17 1 30 3 30 5 0 2 33 7 80 13 13 1 27 6 30 9 4 4 13
4 21 1 8 -3 14 1 14 8 0 10 3 11 8 3 16 -25 90 29 221 161 73 74 137 135 142
135 4 0 9 5 11 11 5 15 1010 1019 1020 1019 4 0 8 4 8 8 0 11 220 232 231 232
5 0 9 5 9 10 0 6 15 25 34 43 129 124 152 327 53 476 -22 33 -280 297 -338
346 -13 11 -46 31 -72 43 -71 33 -189 31 -243 -4 -11 -8 -24 -11 -27 -7 -4 3
-7 1 -7 -5 0 -7 -6 -12 -13 -12 -7 0 -32 -18 -56 -40 -23 -22 -44 -40 -45 -40
-5 0 -126 -123 -127 -129 -1 -3 -43 -45 -94 -93 -51 -48 -90 -89 -88 -92 3 -2
-5 -7 -16 -11 -12 -3 -21 -10 -21 -14 0 -8 -130 -141 -139 -142 -3 0 -22 -20
-41 -44 -19 -24 -43 -47 -52 -50 -9 -3 -20 -15 -23 -26 -4 -11 -9 -19 -11 -17
-6 6 -160 -146 -157 -154 2 -4 -1 -9 -7 -13 -5 -3 -11 2 -11 12 -1 10 -2 25
-3 33 -1 8 2 25 6 38 4 12 4 22 0 22 -4 0 -6 42 -4 92 1 51 2 109 1 128 -5
137 -3 174 9 187 8 7 18 10 24 7 6 -4 13 -3 17 2 3 5 20 17 36 26 38 21 66 71
68 120 1 21 6 38 10 38 5 0 5 5 1 11 -9 16 -11 129 -1 129 5 0 5 5 1 12 -10
16 -11 149 -1 155 4 2 4 10 0 16 -9 15 -10 77 -1 77 4 0 5 6 3 13 -11 32 -13
97 -3 91 7 -5 8 -2 3 6 -11 18 -12 239 -1 233 5 -4 6 0 1 7 -11 18 -12 190 -1
190 5 0 3 6 -3 14 -8 9 -8 16 -2 20 6 4 7 16 3 29 -4 12 -7 45 -6 72 4 67 4
89 3 240 0 72 0 144 0 160 1 17 0 76 -1 132 -2 58 1 99 6 96 5 -4 6 0 1 7 -11
17 -12 190 -2 190 5 0 5 5 1 12 -11 18 -11 141 -1 156 5 6 6 12 1 12 -5 0 -9
34 -9 75 0 90 -6 81 195 254 41 36 80 70 85 75 6 6 46 40 90 76 44 35 82 67
85 70 22 23 417 324 500 380 12 8 47 33 78 56 47 33 272 182 422 279 48 31
274 166 335 200 28 16 106 60 175 98 127 71 484 250 640 321 521 237 1099 441
1661 585 86 22 170 43 185 46 16 2 44 9 63 15 19 5 36 9 37 7 2 -1 5 -25 8
-52 3 -28 8 -70 11 -95 2 -25 7 -71 10 -102 10 -111 16 -173 20 -208 2 -19 7
-64 10 -100 3 -36 8 -81 10 -100 8 -75 15 -137 20 -190 8 -98 16 -174 20 -210
2 -19 7 -64 10 -100 3 -36 8 -78 10 -95 2 -16 6 -61 10 -100 3 -38 8 -86 10
-105 3 -19 7 -66 10 -105 11 -129 24 -162 73 -184 60 -28 1943 -651 1966 -651
14 0 35 4 48 10 13 5 97 36 188 70 91 33 174 65 185 70 11 5 108 41 215 81
107 39 240 88 295 109 136 52 651 245 749 281 43 16 85 34 93 41 26 22 41 63
47 133 8 85 12 131 26 255 10 100 13 128 30 305 6 61 12 126 15 145 2 19 7 64
10 100 6 78 11 124 25 250 5 52 12 118 14 145 19 190 37 374 41 395 2 14 4 35
4 48 1 22 4 23 49 17 26 -3 63 -10 82 -15 32 -9 199 -45 245 -54 35 -7 305
-77 415 -107 1205 -337 2313 -873 3337 -1617 186 -135 512 -389 553 -432 3 -3
34 -30 70 -60 36 -30 67 -57 70 -60 3 -3 39 -34 80 -70 132 -115 219 -198 510
-490 l285 -285 -313 -5 -314 -5 -30 -34 c-30 -34 -30 -34 -24 -120 3 -47 8
-99 10 -116 2 -16 7 -64 11 -105 3 -41 8 -86 10 -100 2 -14 7 -59 10 -100 3
-41 8 -88 10 -105 2 -16 6 -55 9 -85 12 -118 17 -167 21 -210 5 -44 11 -107
20 -200 5 -54 12 -126 20 -197 5 -54 11 -116 20 -200 2 -27 7 -70 9 -98 3 -27
8 -77 11 -110 3 -33 8 -76 10 -95 8 -76 15 -138 20 -195 6 -61 12 -128 20
-200 6 -56 21 -206 31 -310 3 -33 7 -73 9 -90 2 -16 6 -66 10 -110 4 -44 8
-87 10 -95 2 -8 6 -53 10 -100 4 -47 8 -92 10 -100 2 -8 6 -49 9 -90 4 -41 9
-91 11 -110 10 -92 15 -140 20 -192 9 -102 16 -172 20 -208 8 -67 15 -135 20
-200 4 -36 8 -83 10 -105 6 -59 14 -138 20 -197 24 -246 29 -263 82 -287 63
-29 1945 -651 1969 -651 14 0 53 11 87 24 79 31 679 256 682 256 8 0 125 -557
140 -670 3 -25 10 -71 15 -102 6 -32 14 -84 20 -115 10 -65 13 -86 35 -268 20
-171 23 -199 30 -270 13 -142 35 -211 85 -276 57 -71 152 -91 209 -43 76 63
84 162 41 514 -19 159 -21 176 -26 210 -2 19 -7 49 -9 65 -3 17 -8 50 -11 75
-3 25 -14 98 -25 164 -28 170 -28 175 -40 236 -6 30 -12 66 -15 80 -2 14 -7
36 -9 50 -3 14 -7 34 -9 45 -17 88 -69 331 -81 375 -8 30 -13 55 -12 56 1 1
150 57 332 126 383 144 368 133 379 268 4 44 9 91 11 103 3 20 9 79 21 212 3
28 9 91 14 140 5 50 12 117 15 150 13 134 15 152 20 200 6 56 32 323 40 400 5
54 24 235 30 300 12 119 26 257 31 305 2 30 7 73 9 95 2 22 7 72 10 110 3 39
8 81 10 95 2 14 7 57 10 95 4 39 8 86 10 105 8 76 15 137 19 190 7 72 26 255
31 300 2 19 6 60 9 90 3 30 19 195 36 365 17 171 32 326 35 345 2 19 7 69 11
110 3 41 8 82 9 90 1 8 6 55 10 104 4 50 8 97 10 105 6 33 19 197 16 216 -3
34 -21 61 -51 78 -26 16 -160 17 -1757 17 l-1729 0 -48 58 c-42 50 -179 201
-275 302 -258 272 -626 622 -875 831 -16 13 -34 29 -40 34 -6 6 -36 30 -66 55
-30 25 -57 47 -60 50 -24 25 -437 343 -510 392 -14 9 -47 33 -75 53 -87 62
-464 315 -471 315 -3 0 -24 13 -47 29 -307 209 -1139 641 -1547 801 -30 12
-68 28 -85 35 -16 8 -66 28 -110 45 -44 17 -89 35 -100 40 -73 32 -497 179
-670 231 -246 75 -281 85 -550 154 -152 39 -422 100 -545 122 l-45 9 -1 46 c0
25 1 60 4 78 4 30 7 32 36 25 32 -6 243 -42 306 -51 19 -3 43 -7 52 -10 10 -3
30 -7 45 -10 44 -7 272 -54 338 -69 33 -8 112 -26 175 -40 63 -15 123 -29 133
-31 10 -1 52 -13 95 -24 72 -20 145 -40 217 -60 17 -5 57 -16 90 -24 65 -18
499 -160 543 -178 15 -6 32 -12 37 -14 30 -7 346 -132 510 -202 453 -192 1019
-486 1409 -731 123 -78 536 -353 590 -393 24 -18 55 -41 67 -50 79 -56 280
-207 306 -228 16 -14 45 -37 64 -52 19 -14 44 -35 56 -45 12 -10 47 -38 79
-63 32 -25 79 -63 104 -85 25 -22 73 -62 105 -90 72 -61 222 -193 251 -220 11
-11 79 -75 150 -141 134 -127 415 -409 525 -528 35 -38 79 -85 97 -105 142
-155 196 -192 285 -197 153 -9 195 122 91 287 -57 91 -360 508 -384 529 -3 3
-19 23 -36 45 -35 47 -33 45 -170 210 -94 112 -129 153 -179 209 -6 6 -50 56
-100 111 -267 298 -611 633 -930 905 -66 57 -132 113 -146 125 -256 221 -789
606 -1149 829 -85 53 -162 101 -170 106 -34 22 -401 230 -480 272 -670 360
-1501 693 -2190 877 -41 11 -120 32 -175 46 -55 15 -111 29 -125 32 -14 2 -52
11 -85 20 -33 8 -69 17 -80 19 -11 2 -71 15 -134 29 -63 14 -116 25 -118 25
-2 0 -2 3 0 8 3 4 8 50 12 102 4 52 8 97 10 100 2 3 6 43 9 90 4 47 9 96 11
110 2 14 7 54 10 90 3 36 8 85 10 110 3 25 7 68 9 95 7 67 15 141 21 194 16
134 3 184 -53 210 -16 8 -704 11 -2293 11 l-2271 0 -35 -35z m4722 -1480 c283
-63 550 -136 855 -232 134 -42 398 -132 445 -152 11 -5 36 -14 55 -21 19 -7
44 -16 55 -21 11 -5 45 -18 75 -29 30 -11 64 -25 75 -30 11 -5 58 -25 105 -44
191 -77 404 -173 648 -295 219 -109 295 -149 557 -296 157 -87 419 -252 650
-407 182 -122 240 -166 160 -123 -27 15 -57 34 -66 41 -8 8 -19 14 -23 14 -5
0 -34 15 -65 34 -70 43 -112 66 -281 154 -316 164 -490 248 -750 358 -96 41
-186 79 -200 86 -91 40 -457 176 -595 221 -44 15 -127 42 -185 61 -129 43
-489 143 -665 185 -187 44 -299 70 -334 76 -17 3 -64 12 -104 21 -39 8 -83 17
-97 20 -14 2 -36 7 -50 10 -54 13 -202 40 -270 50 -19 3 -46 7 -60 9 -14 3
-43 7 -65 10 -22 3 -53 8 -68 11 l-29 6 6 71 c7 81 14 152 22 215 4 34 9 42
22 38 9 -3 89 -21 177 -41z m-4614 -17 c0 -13 2 -34 4 -48 1 -14 6 -56 10 -95
3 -38 8 -88 10 -110 3 -22 7 -60 9 -85 3 -25 7 -73 11 -107 l6 -61 -33 -11
c-18 -5 -109 -31 -203 -56 -93 -26 -195 -55 -225 -65 -30 -10 -127 -42 -215
-70 -88 -28 -173 -57 -190 -65 -16 -7 -46 -18 -65 -23 -98 -28 -531 -210 -790
-333 -133 -62 -527 -260 -605 -304 -545 -302 -1065 -641 -1460 -949 -158 -124
-330 -260 -335 -266 -3 -3 -32 -28 -65 -55 -33 -28 -62 -52 -65 -55 -3 -3 -34
-30 -70 -60 -35 -30 -72 -62 -80 -70 -9 -8 -68 -62 -130 -120 -63 -58 -134
-124 -158 -147 -24 -24 -46 -43 -50 -43 -4 0 -33 13 -65 30 -31 16 -57 27 -57
24 0 -2 -9 0 -21 6 -50 27 -105 32 -391 34 -142 0 -258 4 -258 8 0 11 455 466
580 580 167 152 434 380 554 473 22 17 53 42 70 56 130 109 572 421 806 569
113 72 459 280 465 280 2 0 43 23 92 51 144 85 833 429 857 429 2 0 39 16 80
35 42 19 78 35 81 35 2 0 28 11 57 24 200 91 816 312 1093 391 33 10 78 23
100 30 40 13 342 93 380 101 11 3 72 18 135 33 63 16 118 30 123 30 4 1 7 -9
8 -21z m-7787 -7491 c28 -18 53 -32 56 -33 3 0 22 -8 44 -17 21 -9 44 -17 51
-17 6 0 15 -3 18 -7 8 -8 74 -16 130 -17 46 0 48 21 -26 -221 -48 -155 -72
-238 -83 -280 -1 -5 -21 -82 -44 -170 -32 -128 -84 -350 -116 -500 -3 -18 -17
-92 -29 -165 -6 -31 -23 -127 -30 -160 -3 -13 -7 -42 -10 -65 -4 -22 -12 -83
-20 -135 -8 -52 -16 -115 -20 -140 -3 -25 -7 -61 -10 -80 -2 -19 -7 -60 -10
-90 -4 -30 -8 -66 -10 -80 -2 -14 -6 -56 -9 -95 -4 -38 -9 -97 -12 -130 -41
-468 -40 -1293 1 -1710 3 -27 7 -81 10 -120 3 -38 8 -87 10 -107 11 -85 14
-116 20 -168 3 -30 7 -64 9 -76 2 -11 7 -45 11 -75 3 -30 8 -65 10 -79 9 -66
35 -237 39 -256 2 -12 7 -37 10 -55 12 -76 47 -255 52 -271 5 -16 -10 -56 -25
-68 -26 -21 -181 -308 -181 -335 0 -8 -4 -15 -10 -15 -5 0 -10 -10 -10 -22 -1
-44 -17 5 -70 212 -29 113 -53 212 -55 220 -2 8 -19 89 -39 180 -19 91 -37
179 -41 195 -3 17 -8 44 -11 60 -3 17 -11 62 -19 100 -8 39 -17 88 -20 110 -4
22 -11 67 -16 100 -5 33 -12 74 -14 90 -2 17 -7 48 -10 70 -4 22 -8 51 -10 65
-5 36 -23 177 -30 235 -3 28 -7 66 -10 85 -2 19 -7 65 -10 101 -3 37 -7 82
-10 100 -2 19 -7 70 -10 114 -4 44 -8 96 -10 115 -2 19 -6 98 -10 175 -4 77
-9 167 -11 200 -3 77 -3 694 0 760 2 28 7 109 11 180 4 72 8 146 10 165 2 19
6 67 9 105 8 101 16 185 21 225 3 19 7 55 10 80 2 25 8 68 12 95 4 28 7 57 8
65 2 27 16 124 30 210 8 47 17 103 20 125 4 22 8 47 10 55 2 8 7 35 10 60 18
126 118 588 171 790 14 52 27 102 29 110 20 85 68 252 87 302 l10 28 46 -46
c24 -25 68 -60 96 -77z m800 -5844 c40 -52 144 -255 148 -291 3 -19 -5 -26
-47 -43 -27 -12 -67 -28 -88 -37 -23 -9 -41 -12 -47 -6 -10 10 -90 290 -90
314 1 18 66 110 79 110 4 0 25 -21 45 -47z m-1319 -897 c33 -4 63 -10 67 -14
4 -4 2 -42 -5 -85 l-12 -77 -95 -72 c-52 -39 -110 -84 -129 -99 l-35 -28 -54
81 c-81 120 -139 254 -119 274 3 3 41 11 84 18 79 12 188 13 298 2z m2885 -9
c50 -12 55 -15 52 -37 -6 -41 -66 -161 -123 -247 l-53 -81 -36 26 c-181 136
-230 176 -231 186 0 6 -2 18 -4 27 -6 31 -16 129 -13 129 47 2 174 13 177 16
8 7 180 -7 231 -19z m-2941 -1656 c77 -58 111 -91 112 -105 1 -20 2 -31 13
-113 l4 -31 -59 -7 c-153 -18 -363 -5 -392 24 -22 22 28 141 115 273 51 76 52
77 74 60 12 -9 72 -55 133 -101z m2869 37 c58 -86 99 -164 117 -223 l12 -43
-36 -11 c-85 -28 -248 -34 -383 -16 l-49 7 6 52 c12 100 16 111 43 131 15 11
72 55 126 98 55 42 103 77 108 77 4 0 29 -33 56 -72z m-1427 -842 c100 -41 99
-35 28 -180 -63 -129 -72 -144 -107 -186 -26 -30 -32 -33 -46 -21 -21 17 -98
142 -125 201 -11 25 -29 67 -41 93 -12 26 -21 50 -18 52 2 2 39 18 83 35 44
17 87 35 95 40 18 10 24 9 131 -34z m1012 -272 c23 -3 42 -6 43 -7 12 -20 300
-383 314 -397 3 -3 46 -52 95 -110 50 -57 97 -111 105 -120 8 -9 60 -66 114
-126 125 -137 487 -499 625 -624 57 -52 109 -100 115 -105 12 -12 202 -174
286 -245 155 -131 477 -375 678 -513 61 -43 112 -80 112 -83 0 -17 -476 302
-779 523 -122 89 -446 347 -527 420 -17 15 -55 48 -84 73 -29 25 -58 50 -64
55 -6 6 -31 28 -56 49 -297 260 -753 728 -1039 1069 -68 81 -73 89 -67 122 8
40 -6 38 129 19z"/>
<path d="M10128 15454 c-81 -19 -127 -45 -197 -110 -45 -41 -71 -77 -99 -133
l-37 -76 -3 -1708 c-2 -1502 0 -1711 13 -1743 15 -36 15 -36 -25 -86 -39 -49
-57 -85 -115 -218 -15 -36 -38 -86 -51 -111 -13 -26 -24 -53 -24 -62 0 -8 -7
-20 -15 -27 -8 -7 -15 -19 -15 -27 0 -8 -13 -42 -29 -76 -17 -34 -46 -100 -66
-147 -20 -47 -45 -103 -55 -125 -11 -22 -31 -67 -46 -100 -14 -33 -37 -82 -50
-110 -37 -77 -57 -196 -58 -325 0 -97 4 -123 22 -164 34 -75 85 -131 150 -163
l57 -28 3156 -3 3155 -2 65 25 c74 28 110 64 157 156 31 61 32 64 32 199 0
124 -3 144 -29 221 -27 78 -55 146 -100 244 -11 22 -56 123 -100 225 -45 102
-90 203 -100 225 -11 22 -49 108 -86 191 -37 83 -85 175 -106 203 -32 43 -37
55 -29 71 6 11 9 20 6 20 -2 0 0 19 6 43 13 58 12 3292 -1 3370 -29 166 -187
325 -355 356 -42 8 -787 11 -2515 10 -2062 -1 -2465 -3 -2513 -15z"/>
</g>
</svg>
