<?xml version="1.0" encoding="UTF-8" standalone="no"?><!DOCTYPE svg PUBLIC "-//W3C//DTD SVG 1.1//EN" "http://www.w3.org/Graphics/SVG/1.1/DTD/svg11.dtd"><svg width="100%" height="100%" viewBox="0 0 2964 2791" version="1.1" xmlns="http://www.w3.org/2000/svg" xmlns:xlink="http://www.w3.org/1999/xlink" xml:space="preserve" xmlns:serif="http://www.serif.com/" style="fill-rule:evenodd;clip-rule:evenodd;stroke-linejoin:round;stroke-miterlimit:2;"><path d="M2151.36,1583.41l0,770.813l128.934,210.125l9.812,15.983l508.738,0l10.279,-996.921l-657.763,0Z" style="fill:#e6e6e6;fill-rule:nonzero;"/><path d="M2151.36,1583.41l0,770.813l128.934,210.125l7.912,-980.938l-136.846,0Z" style="fill-opacity:0.1;fill-rule:nonzero;"/><path d="M923.192,1562.85l-0,770.817l-128.934,210.125l-9.812,15.979l-508.738,-0l-10.279,-996.921l657.763,0Z" style="fill:#e6e6e6;fill-rule:nonzero;"/><path d="M923.192,1562.85l-0,770.817l-128.934,210.125l-7.912,-980.942l136.846,-0Z" style="fill-opacity:0.1;fill-rule:nonzero;"/><path d="M2963.28,1547.44l0,46.245l-2764.66,0l0,-66.804l256.938,-133.608l2281.62,-0l226.104,154.167Z" style="fill:#e6e6e6;fill-rule:nonzero;"/><path d="M2963.28,1547.44l0,46.245l-2764.66,0l0,-66.804l2764.66,20.559Z" style="fill-opacity:0.1;fill-rule:nonzero;"/><path d="M594.313,1778.68l-123.334,0l-51.387,-35.971l231.246,0l-56.525,35.971Z" style="fill:#3f3d56;fill-rule:nonzero;"/><path d="M594.313,1927.7l-123.334,0l-51.387,-35.971l231.246,0l-56.525,35.971Z" style="fill:#1c2830;fill-rule:nonzero;"/><path d="M594.313,2138.4l-123.334,-0l-51.387,-35.975l231.246,-0l-56.525,35.975Z" style="fill:#1c2830;fill-rule:nonzero;"/><path d="M594.313,2349.08l-123.334,0l-51.387,-35.97l231.246,-0.001l-56.525,35.971Z" style="fill:#1c2830;fill-rule:nonzero;"/><path d="M2480.24,1799.23l123.333,0l51.387,-35.97l-231.246,-0l56.526,35.97Z" style="fill:#1c2830;fill-rule:nonzero;"/><path d="M2480.24,1948.26l123.333,0l51.387,-35.97l-231.246,-0l56.526,35.97Z" style="fill:#1c2830;fill-rule:nonzero;"/><path d="M2480.24,2158.95l123.333,0l51.387,-35.971l-231.246,0l56.526,35.971Z" style="fill:#1c2830;fill-rule:nonzero;"/><path d="M2480.24,2369.64l123.333,-0.001l51.387,-35.97l-231.246,-0l56.526,35.97Z" style="fill:#1c2830;fill-rule:nonzero;"/><path d="M2564.22,501.901l-1038.27,0c-0.002,0 -0.004,0 -0.005,0c-21.538,0 -39.262,17.723 -39.262,39.261c0,0.002 0,0.004 0,0.005l0,699.408c0,0.001 0,0.003 0,0.004c0,21.539 17.724,39.262 39.262,39.262c0.001,-0 0.003,-0 0.005,-0l394.137,-0l-14.766,94.276c-0,-0 -84.387,44.83 -25.053,46.149c59.335,1.318 338.866,-0 338.866,-0c-0,-0 54.06,-0 -31.645,-47.468l-13.89,-92.957l390.623,-0c0.002,-0 0.004,-0 0.005,-0c21.538,-0 39.262,-17.723 39.262,-39.261c-0,-0.002 -0,-0.004 -0.001,-0.005l0,-699.408c0.001,-0.001 0.001,-0.003 0.001,-0.005c-0,-21.538 -17.724,-39.261 -39.262,-39.261c-0.001,0 -0.003,0 -0.005,0Z" style="fill:#1c2830;fill-rule:nonzero;"/><rect x="1524.26" y="543.435" width="1041.65" height="582.796" style="fill:#f2f2f2;"/><circle cx="2045.09" cy="524.976" r="6.593" style="fill:#f2f2f2;"/><circle cx="2045.09" cy="1226.44" r="25.052" style="fill:#f2f2f2;"/><path d="M2006.05,1491.47l0,13.187l-709.375,0l0,-10.55l0.975,-2.637l17.483,-47.467l676.413,0l14.504,47.467Z" style="fill:#1c2830;fill-rule:nonzero;"/><path d="M2279.04,1478.56c-1.292,5.525 -6.171,11.353 -17.194,16.865c-39.556,19.778 -119.988,-5.275 -119.988,-5.275c0,0 -61.971,-10.548 -61.971,-38.237c1.74,-1.192 3.555,-2.271 5.432,-3.231c16.631,-8.798 71.772,-30.509 169.544,0.92c7.202,2.26 13.637,6.477 18.585,12.179c4.443,4.369 6.526,10.618 5.592,16.779Z" style="fill:#1c2830;fill-rule:nonzero;"/><path d="M2279.04,1478.56c-48.417,18.552 -91.573,19.937 -135.863,-10.825c-16.745,-12.38 -37.032,-19.061 -57.857,-19.053c16.63,-8.798 71.772,-30.509 169.543,0.92c7.203,2.26 13.638,6.477 18.585,12.179c4.443,4.369 6.526,10.618 5.592,16.779Z" style="fill-opacity:0.1;fill-rule:nonzero;"/><ellipse cx="2218.33" cy="1462.46" rx="17.141" ry="5.274" style="fill:#f2f2f2;"/><path d="M2006.05,1491.47l0,13.187l-709.375,0l0,-10.55l0.975,-2.637l708.4,-0Z" style="fill-opacity:0.1;fill-rule:nonzero;"/><path d="M394.423,0.001c-7.199,-0.591 -14.41,1.019 -20.672,4.618c-6.15,4.211 -10.026,11.59 -13.983,18.456c-15.127,26.564 -35.609,49.699 -60.143,67.936c-17.87,13.091 -40.59,29.415 -37.533,53.553c1.613,7.971 4.558,15.613 8.711,22.606c16.486,33.279 61.473,58.997 57.048,96.971c16.379,-27.421 -5.529,-40.979 10.85,-68.399c7.8,-13.059 21.351,-27.799 33.127,-19.598c3.944,2.745 6.533,7.67 10.639,10.079c9.796,5.749 20.219,-5.241 28.891,-13.026c29.903,-26.844 72.429,-19.812 109.641,-11.448c17.567,3.949 36.864,9.13 47.249,25.92c13.654,22.076 -12.973,45.918 -19.701,70.877c-0.287,1.111 -0.432,2.254 -0.432,3.401c0,7.46 6.14,13.6 13.6,13.6c0.477,-0 0.954,-0.025 1.428,-0.075c11.165,-1.102 24.392,-2.005 25.053,-6.904c14.048,0.5 31.261,-1.091 37.28,-15.719c1.84,-5.788 2.812,-11.816 2.886,-17.888c2.209,-24.572 12.638,-46.989 19.547,-70.375c6.908,-23.386 9.912,-50.794 -1.747,-71.528c-4.161,-6.899 -9.307,-13.153 -15.275,-18.565c-66.162,-64.028 -153.151,-74.587 -236.464,-74.492Z" style="fill:#1c2830;fill-rule:nonzero;"/><path d="M342.24,312.105c0,0 14.39,119.91 -38.371,129.503c-52.76,9.593 47.964,172.67 47.964,172.67l239.82,28.779l-57.557,-191.856c0,-0 -38.371,-14.39 -14.389,-110.318c23.982,-95.928 -177.467,-28.778 -177.467,-28.778Z" style="fill:#ffb8b8;fill-rule:nonzero;"/><path d="M195.95,2372.16l19.188,263.805l100.72,-0l-28.775,-263.805l-91.133,0Z" style="fill:#ffb8b8;fill-rule:nonzero;"/><path d="M934.596,1873.33l14.387,220.634l110.321,-47.963l-43.171,-182.262l-81.537,9.591Z" style="fill:#ffb8b8;fill-rule:nonzero;"/><path d="M124.004,1364.91c0,0 4.797,278.191 33.575,369.323c28.779,91.132 23.982,95.928 19.186,110.317c-4.797,14.389 -9.593,4.797 -9.593,28.779c-0,23.982 -9.593,402.897 -0,436.472c9.593,33.575 -28.778,91.132 -0,95.928c28.778,4.796 163.078,0 167.874,-28.778c4.796,-28.779 -38.371,-38.372 -19.186,-57.557c19.186,-19.186 47.964,-412.491 47.964,-412.491l67.15,-273.395l124.706,-143.892l263.802,0l81.539,316.563c0,-0 -33.575,91.132 -9.593,91.132c23.982,-0 167.874,28.778 167.874,-76.743c0,-105.521 -47.964,-417.287 -57.556,-426.88c-9.593,-9.592 4.796,-43.167 -9.593,-57.556c-14.389,-14.39 -182.263,-115.114 -244.617,-134.3c-62.353,-19.185 -149.824,-42.02 -149.824,-42.02l-473.708,205.098Z" style="fill:#1c2830;fill-rule:nonzero;"/><path d="M1059.3,2007.63c0,-0 -71.945,-23.982 -105.52,47.964c-33.575,71.946 -19.186,91.131 -19.186,91.131c-0,0 110.317,38.372 129.503,19.186c8.347,-8.347 34.853,-11.247 62.136,-11.859c41.554,-0.933 52.61,-59.722 13.365,-73.412c-1.171,-0.408 -2.356,-0.763 -3.555,-1.064c-38.371,-9.593 -76.743,-71.946 -76.743,-71.946Z" style="fill:#1c2830;fill-rule:nonzero;"/><circle cx="450.159" cy="247.354" r="143.892" style="fill:#ffb8b8;"/><path d="M263.1,501.563c-0,-0 235.023,47.964 292.58,-28.779c57.557,-76.742 81.539,215.838 81.539,215.838l28.778,306.97l-43.167,167.874c-0,0 -225.431,182.263 -297.377,196.653c-71.946,14.389 -182.263,23.982 -182.263,23.982c-0,-0 33.575,-532.401 33.575,-541.994c-0,-9.592 86.335,-340.544 86.335,-340.544Z" style="fill:#f4bb44;fill-rule:nonzero;"/><path d="M334.576,411.608c0,-0 -52.291,-29.955 -66.68,-1.177c-14.389,28.779 -148.688,100.725 -163.077,100.725c-14.39,-0 28.778,398.101 9.592,446.065c-19.185,47.964 -110.317,398.101 -57.556,426.88c52.76,28.778 14.389,-28.779 67.149,43.167c52.761,71.946 311.766,71.946 326.155,43.168c14.39,-28.778 -115.113,-244.617 -91.131,-446.065c23.982,-201.449 62.353,-479.641 28.778,-518.012c-33.575,-38.371 -53.23,-94.751 -53.23,-94.751Z" style="fill:#1c2830;fill-rule:nonzero;"/><path d="M507.716,444.006l6.681,-22.992c0,0 199.565,66.16 209.157,109.327c9.593,43.168 4.797,345.341 -28.778,369.323c-33.575,23.982 -81.539,62.353 -47.964,119.91c33.575,57.557 71.946,119.91 100.724,124.707c28.779,4.796 81.539,38.371 67.15,71.945c-14.389,33.575 -187.06,-28.778 -187.06,-28.778c0,0 -115.113,-86.335 -110.317,-220.634c4.797,-134.3 -9.593,-522.808 -9.593,-522.808Z" style="fill:#1c2830;fill-rule:nonzero;"/><path d="M675.59,1009.98l-115.113,215.838c-0,0 -167.874,172.671 -71.946,191.856c95.928,19.186 148.688,-158.281 148.688,-158.281l124.707,-177.466l-86.336,-71.947Z" style="fill:#ffb8b8;fill-rule:nonzero;"/><path d="M401.432,37.65c-5.799,-0.43 -11.609,0.697 -16.827,3.264c-4.719,3.446 -8.608,7.903 -11.383,13.044c-12.793,19.244 -29.471,35.6 -48.959,48.017c-14.547,9.253 -33.042,20.79 -30.553,37.851c1.351,5.72 3.756,11.138 7.091,15.978c13.464,23.755 18.827,51.263 15.271,78.336l40.001,-58.142c6.35,-9.229 17.38,-19.648 26.967,-13.852c3.21,1.941 5.317,5.422 8.66,7.125c7.975,4.063 16.459,-3.705 23.518,-9.207c24.343,-18.974 58.961,-14.003 89.253,-8.091c14.3,2.791 30.008,6.452 38.462,18.32c14.049,19.721 -0.621,48.217 7.579,71c4.635,-3.246 7.761,-8.236 8.66,-13.822c11.436,0.353 25.448,-0.771 30.348,-11.11c1.49,-4.052 2.284,-8.327 2.349,-12.643c1.798,-17.367 10.288,-33.211 15.912,-49.741c5.624,-16.529 8.069,-35.9 -1.422,-50.555c-3.472,-4.966 -7.663,-9.388 -12.434,-13.122c-53.86,-45.255 -124.673,-52.718 -192.493,-52.65Z" style="fill:#1c2830;fill-rule:nonzero;"/><path d="M675.59,511.156l44.689,11.862c-0,-0 104,266.329 80.018,448.592c-23.982,182.264 -38.371,143.892 -38.371,143.892c-0,0 -38.372,-86.335 -124.707,-67.149l38.371,-537.197Z" style="fill:#1c2830;fill-rule:nonzero;"/><path d="M202.595,2601.1c-11.566,15.718 -9.247,38.186 -19.492,54.795c-8.881,14.397 -25.619,21.946 -36.727,34.703c-3.545,4.238 -6.705,8.784 -9.442,13.583c-10.305,17.26 -18.681,39.382 -8.532,56.735c8.164,13.959 25.324,19.415 41.062,23.133c19.892,4.7 40.56,8.461 60.682,4.87c20.121,-3.592 39.786,-15.913 46.961,-35.052c1.41,-4.812 3.086,-9.543 5.021,-14.169c10.906,-21.471 45.115,-21.703 56.276,-43.042c7.811,-14.933 0.631,-32.984 -6.546,-48.232l-21.922,-46.572c-7.274,-15.455 -36.765,-6.567 -52.139,-10.27c-20.051,-4.83 -40.777,-10.151 -55.202,9.518Z" style="fill:#1c2830;fill-rule:nonzero;"/><path d="M42.465,1105.91l201.449,311.766c0,0 124.707,158.282 163.078,86.336c38.371,-71.946 -134.299,-191.856 -134.299,-191.856l-129.503,-239.82l-100.725,33.574Z" style="fill:#ffb8b8;fill-rule:nonzero;"/><path d="M143.19,520.748l-38.371,-9.592c-0,-0 -76.743,23.982 -95.928,124.706c-19.186,100.724 -4.797,503.622 19.185,508.418c23.982,4.797 118.447,-70.152 133.568,-54.261c15.121,15.89 -32.843,-65.649 -18.454,-108.816c14.389,-43.168 -0,-460.455 -0,-460.455Z" style="fill:#1c2830;fill-rule:nonzero;"/><g id="f3c2397c-d780-4cc6-97d8-1503d8277a2c"><rect id="ad41612f-86f7-46b2-a964-3a5da7bcf3cf" x="1822.53" y="734.845" width="123.968" height="29.844" style="fill:#f4bb44;"/><rect id="b9a0b375-cc2a-4c59-8850-661af54e4f62" x="2332.18" y="734.845" width="43.618" height="29.844" style="fill:#f4bb44;"/><rect id="e174c2ab-9bc5-41ec-b37c-b06fbf8a9878" x="2419.41" y="734.845" width="43.618" height="29.844" style="fill:#f4bb44;"/><rect id="ba2479ac-4c7d-43b4-a028-73b1e20e4002" x="1990.12" y="734.845" width="296.146" height="29.844" style="fill:#f4bb44;"/><rect id="ac60ef86-00f2-480b-8171-28b6fdfc1958" x="1666.42" y="927.684" width="123.968" height="29.844" style="fill:#f4bb44;"/><rect id="b3d8298d-cd65-487a-8b19-4cee946356e7" x="2176.07" y="927.684" width="43.618" height="29.844" style="fill:#f4bb44;"/><rect id="ed27f15f-f0c4-4569-8330-a6688f8e356c" x="2263.3" y="927.684" width="43.618" height="29.844" style="fill:#f4bb44;"/><rect id="f685c005-adaf-4d60-acda-005b037d82a6" x="1834.01" y="927.684" width="296.146" height="29.844" style="fill:#f4bb44;"/><rect id="eca7c7fc-83f8-48ca-a588-6606db47af3f" x="2178.36" y="801.42" width="123.968" height="29.844" style="fill:#f4bb44;"/><rect id="a71b5b2f-f8b9-481d-a301-5e3357e5fe42" x="2345.95" y="801.42" width="123.968" height="29.844" style="fill:#f4bb44;"/><rect id="abb3a25a-f854-41fc-8391-e6ad9fbe2417" x="1666.42" y="801.42" width="43.618" height="29.844" style="fill:#f4bb44;"/><rect id="add2b425-b775-4eb5-9c25-8c4c14f957c9" x="1753.66" y="801.42" width="43.618" height="29.844" style="fill:#f4bb44;"/><rect id="b7159612-3b84-4b0b-a885-612eaab04c06" x="1840.89" y="801.42" width="296.146" height="29.844" style="fill:#f4bb44;"/><rect id="edfc7301-4de5-47dc-80e2-1ae2da982d6d" x="1921.24" y="865.7" width="123.968" height="29.844" style="fill:#f4bb44;"/><rect id="e1009f91-6275-4375-80fa-0d778e331fdc" x="1753.66" y="865.7" width="123.968" height="29.844" style="fill:#f4bb44;"/><rect id="a060fb9f-1f1a-4862-9a69-16dd49199e18" x="1666.42" y="865.7" width="43.618" height="29.844" style="fill:#f4bb44;"/><rect id="b6754d5f-104f-449c-b9a9-cf9ac82bf5fe" x="2426.3" y="865.7" width="43.618" height="29.844" style="fill:#f4bb44;"/><rect id="e6ed1ccd-2cfd-450f-a339-07df3a1ee6bb" x="2086.53" y="865.7" width="296.146" height="29.844" style="fill:#f4bb44;"/></g></svg>